<mxfile host="app.diagrams.net" modified="2020-12-21T07:44:45.446Z" agent="5.0 (Macintosh; Intel Mac OS X 10_14_5) AppleWebKit/537.36 (KHTML, like Gecko) Chrome/87.0.4280.88 Safari/537.36" etag="GjjWznH0S93mNkbAWsse" version="13.11.0" type="github">
  <diagram id="C5RBs43oDa-KdzZeNtuy" name="Page-1">
    <mxGraphModel dx="1426" dy="771" grid="1" gridSize="10" guides="1" tooltips="1" connect="1" arrows="1" fold="1" page="1" pageScale="1" pageWidth="1654" pageHeight="2336" background="#114B5F" math="0" shadow="0">
      <root>
        <mxCell id="WIyWlLk6GJQsqaUBKTNV-0" />
        <mxCell id="WIyWlLk6GJQsqaUBKTNV-1" parent="WIyWlLk6GJQsqaUBKTNV-0" />
        <mxCell id="WIyWlLk6GJQsqaUBKTNV-2" value="" style="rounded=0;html=1;jettySize=auto;orthogonalLoop=1;fontSize=11;endArrow=block;endFill=0;endSize=8;strokeWidth=1;shadow=0;labelBackgroundColor=none;edgeStyle=orthogonalEdgeStyle;strokeColor=#028090;fontColor=#E4FDE1;" parent="WIyWlLk6GJQsqaUBKTNV-1" source="WIyWlLk6GJQsqaUBKTNV-3" target="WIyWlLk6GJQsqaUBKTNV-6" edge="1">
          <mxGeometry relative="1" as="geometry" />
        </mxCell>
        <mxCell id="WIyWlLk6GJQsqaUBKTNV-3" value="轮询monogdb员工表" style="rounded=1;whiteSpace=wrap;html=1;fontSize=12;glass=0;strokeWidth=1;shadow=0;fillColor=#F45B69;strokeColor=#028090;fontColor=#E4FDE1;" parent="WIyWlLk6GJQsqaUBKTNV-1" vertex="1">
          <mxGeometry x="535" y="70" width="160" height="40" as="geometry" />
        </mxCell>
        <mxCell id="WIyWlLk6GJQsqaUBKTNV-4" value="Yes" style="rounded=0;html=1;jettySize=auto;orthogonalLoop=1;fontSize=11;endArrow=block;endFill=0;endSize=8;strokeWidth=1;shadow=0;labelBackgroundColor=none;edgeStyle=orthogonalEdgeStyle;strokeColor=#028090;fontColor=#E4FDE1;" parent="WIyWlLk6GJQsqaUBKTNV-1" source="WIyWlLk6GJQsqaUBKTNV-6" target="WIyWlLk6GJQsqaUBKTNV-10" edge="1">
          <mxGeometry y="20" relative="1" as="geometry">
            <mxPoint as="offset" />
          </mxGeometry>
        </mxCell>
        <mxCell id="WIyWlLk6GJQsqaUBKTNV-5" value="No" style="edgeStyle=orthogonalEdgeStyle;rounded=0;html=1;jettySize=auto;orthogonalLoop=1;fontSize=11;endArrow=block;endFill=0;endSize=8;strokeWidth=1;shadow=0;labelBackgroundColor=none;strokeColor=#028090;fontColor=#E4FDE1;" parent="WIyWlLk6GJQsqaUBKTNV-1" source="WIyWlLk6GJQsqaUBKTNV-6" target="WIyWlLk6GJQsqaUBKTNV-7" edge="1">
          <mxGeometry y="10" relative="1" as="geometry">
            <mxPoint as="offset" />
          </mxGeometry>
        </mxCell>
        <mxCell id="WIyWlLk6GJQsqaUBKTNV-6" value="门店或部门是否已存在" style="rhombus;whiteSpace=wrap;html=1;shadow=0;fontFamily=Helvetica;fontSize=12;align=center;strokeWidth=1;spacing=6;spacingTop=-4;fillColor=#F45B69;strokeColor=#028090;fontColor=#E4FDE1;" parent="WIyWlLk6GJQsqaUBKTNV-1" vertex="1">
          <mxGeometry x="565" y="170" width="100" height="90" as="geometry" />
        </mxCell>
        <mxCell id="KgP6qOmpHxI04-KH-3du-19" style="edgeStyle=orthogonalEdgeStyle;curved=0;rounded=1;sketch=0;orthogonalLoop=1;jettySize=auto;html=1;exitX=0.5;exitY=1;exitDx=0;exitDy=0;entryX=0;entryY=0.5;entryDx=0;entryDy=0;strokeColor=#028090;fillColor=#F45B69;fontColor=#E4FDE1;" edge="1" parent="WIyWlLk6GJQsqaUBKTNV-1" source="WIyWlLk6GJQsqaUBKTNV-7" target="WIyWlLk6GJQsqaUBKTNV-10">
          <mxGeometry relative="1" as="geometry">
            <Array as="points">
              <mxPoint x="390" y="380" />
            </Array>
          </mxGeometry>
        </mxCell>
        <mxCell id="WIyWlLk6GJQsqaUBKTNV-7" value="创建门店或部门" style="rounded=1;whiteSpace=wrap;html=1;fontSize=12;glass=0;strokeWidth=1;shadow=0;fillColor=#F45B69;strokeColor=#028090;fontColor=#E4FDE1;" parent="WIyWlLk6GJQsqaUBKTNV-1" vertex="1">
          <mxGeometry x="330" y="195" width="120" height="40" as="geometry" />
        </mxCell>
        <mxCell id="WIyWlLk6GJQsqaUBKTNV-8" value="Yes" style="rounded=0;html=1;jettySize=auto;orthogonalLoop=1;fontSize=11;endArrow=block;endFill=0;endSize=8;strokeWidth=1;shadow=0;labelBackgroundColor=none;edgeStyle=orthogonalEdgeStyle;strokeColor=#028090;fontColor=#E4FDE1;entryX=0.5;entryY=0;entryDx=0;entryDy=0;" parent="WIyWlLk6GJQsqaUBKTNV-1" source="WIyWlLk6GJQsqaUBKTNV-10" target="KgP6qOmpHxI04-KH-3du-21" edge="1">
          <mxGeometry y="20" relative="1" as="geometry">
            <mxPoint as="offset" />
            <mxPoint x="615" y="520" as="targetPoint" />
          </mxGeometry>
        </mxCell>
        <mxCell id="WIyWlLk6GJQsqaUBKTNV-9" value="No" style="edgeStyle=orthogonalEdgeStyle;rounded=0;html=1;jettySize=auto;orthogonalLoop=1;fontSize=11;endArrow=block;endFill=0;endSize=8;strokeWidth=1;shadow=0;labelBackgroundColor=none;strokeColor=#028090;fontColor=#E4FDE1;" parent="WIyWlLk6GJQsqaUBKTNV-1" source="WIyWlLk6GJQsqaUBKTNV-10" edge="1">
          <mxGeometry y="10" relative="1" as="geometry">
            <mxPoint as="offset" />
            <mxPoint x="835" y="380" as="targetPoint" />
          </mxGeometry>
        </mxCell>
        <mxCell id="WIyWlLk6GJQsqaUBKTNV-10" value="根据手机号判断员工是否存在" style="rhombus;whiteSpace=wrap;html=1;shadow=0;fontFamily=Helvetica;fontSize=12;align=center;strokeWidth=1;spacing=6;spacingTop=-4;fillColor=#F45B69;strokeColor=#028090;fontColor=#E4FDE1;" parent="WIyWlLk6GJQsqaUBKTNV-1" vertex="1">
          <mxGeometry x="565" y="340" width="100" height="80" as="geometry" />
        </mxCell>
        <mxCell id="KgP6qOmpHxI04-KH-3du-14" value="&lt;div&gt;1.门店或部门按名称比对？&lt;/div&gt;&lt;div&gt;2.员工调整门店后，无法判断当前未同步成交报告是在调整前还是调整后录入的&lt;/div&gt;&lt;div&gt;3.员工调整部门后，业务数据转移给管理员？&lt;/div&gt;&lt;div&gt;4.员工离职后，业务数据转移给管理员？&lt;/div&gt;" style="text;html=1;align=left;verticalAlign=middle;resizable=0;points=[];autosize=1;fontColor=#E4FDE1;" vertex="1" parent="WIyWlLk6GJQsqaUBKTNV-1">
          <mxGeometry x="1155" y="50" width="430" height="60" as="geometry" />
        </mxCell>
        <mxCell id="KgP6qOmpHxI04-KH-3du-38" value="" style="edgeStyle=orthogonalEdgeStyle;curved=0;rounded=1;sketch=0;orthogonalLoop=1;jettySize=auto;html=1;strokeColor=#028090;fillColor=#F45B69;fontColor=#E4FDE1;exitX=0.5;exitY=1;exitDx=0;exitDy=0;" edge="1" parent="WIyWlLk6GJQsqaUBKTNV-1" source="KgP6qOmpHxI04-KH-3du-46" target="KgP6qOmpHxI04-KH-3du-37">
          <mxGeometry relative="1" as="geometry" />
        </mxCell>
        <mxCell id="KgP6qOmpHxI04-KH-3du-47" value="" style="edgeStyle=orthogonalEdgeStyle;curved=0;rounded=1;sketch=0;orthogonalLoop=1;jettySize=auto;html=1;strokeColor=#028090;fillColor=#F45B69;fontColor=#E4FDE1;" edge="1" parent="WIyWlLk6GJQsqaUBKTNV-1" source="KgP6qOmpHxI04-KH-3du-21" target="KgP6qOmpHxI04-KH-3du-46">
          <mxGeometry relative="1" as="geometry" />
        </mxCell>
        <mxCell id="KgP6qOmpHxI04-KH-3du-49" style="edgeStyle=orthogonalEdgeStyle;curved=0;rounded=1;sketch=0;orthogonalLoop=1;jettySize=auto;html=1;exitX=0;exitY=0.5;exitDx=0;exitDy=0;entryX=0;entryY=0.5;entryDx=0;entryDy=0;strokeColor=#028090;fillColor=#F45B69;fontColor=#E4FDE1;" edge="1" parent="WIyWlLk6GJQsqaUBKTNV-1" source="KgP6qOmpHxI04-KH-3du-21" target="KgP6qOmpHxI04-KH-3du-37">
          <mxGeometry relative="1" as="geometry">
            <Array as="points">
              <mxPoint x="485" y="565" />
              <mxPoint x="485" y="795" />
            </Array>
          </mxGeometry>
        </mxCell>
        <mxCell id="KgP6qOmpHxI04-KH-3du-21" value="是否调整部门" style="rhombus;whiteSpace=wrap;html=1;rounded=0;shadow=0;sketch=0;strokeColor=#028090;fillColor=#F45B69;fontColor=#E4FDE1;" vertex="1" parent="WIyWlLk6GJQsqaUBKTNV-1">
          <mxGeometry x="560.01" y="530" width="110" height="70" as="geometry" />
        </mxCell>
        <mxCell id="KgP6qOmpHxI04-KH-3du-28" value="" style="edgeStyle=orthogonalEdgeStyle;curved=0;rounded=1;sketch=0;orthogonalLoop=1;jettySize=auto;html=1;strokeColor=#028090;fillColor=#F45B69;fontColor=#E4FDE1;" edge="1" parent="WIyWlLk6GJQsqaUBKTNV-1" source="KgP6qOmpHxI04-KH-3du-26" target="KgP6qOmpHxI04-KH-3du-27">
          <mxGeometry relative="1" as="geometry" />
        </mxCell>
        <mxCell id="KgP6qOmpHxI04-KH-3du-32" value="" style="edgeStyle=orthogonalEdgeStyle;curved=0;rounded=1;sketch=0;orthogonalLoop=1;jettySize=auto;html=1;strokeColor=#028090;fillColor=#F45B69;fontColor=#E4FDE1;" edge="1" parent="WIyWlLk6GJQsqaUBKTNV-1" source="KgP6qOmpHxI04-KH-3du-26" target="KgP6qOmpHxI04-KH-3du-31">
          <mxGeometry relative="1" as="geometry" />
        </mxCell>
        <mxCell id="KgP6qOmpHxI04-KH-3du-26" value="&lt;span&gt;校验员工是否离职&lt;/span&gt;" style="rhombus;whiteSpace=wrap;html=1;rounded=0;shadow=0;sketch=0;strokeColor=#028090;fillColor=#F45B69;fontColor=#E4FDE1;" vertex="1" parent="WIyWlLk6GJQsqaUBKTNV-1">
          <mxGeometry x="839" y="340" width="116" height="80" as="geometry" />
        </mxCell>
        <mxCell id="KgP6qOmpHxI04-KH-3du-27" value="不处理" style="ellipse;whiteSpace=wrap;html=1;rounded=0;shadow=0;fontColor=#E4FDE1;strokeColor=#028090;fillColor=#F45B69;sketch=0;" vertex="1" parent="WIyWlLk6GJQsqaUBKTNV-1">
          <mxGeometry x="1095" y="355" width="90" height="50" as="geometry" />
        </mxCell>
        <mxCell id="KgP6qOmpHxI04-KH-3du-31" value="创建员工" style="whiteSpace=wrap;html=1;rounded=0;shadow=0;fontColor=#E4FDE1;strokeColor=#028090;fillColor=#F45B69;sketch=0;" vertex="1" parent="WIyWlLk6GJQsqaUBKTNV-1">
          <mxGeometry x="853" y="480" width="88" height="40" as="geometry" />
        </mxCell>
        <mxCell id="KgP6qOmpHxI04-KH-3du-34" value="&lt;font style=&quot;font-size: 11px&quot;&gt;Yes&lt;/font&gt;" style="text;html=1;align=center;verticalAlign=middle;resizable=0;points=[];autosize=1;fontColor=#E4FDE1;" vertex="1" parent="WIyWlLk6GJQsqaUBKTNV-1">
          <mxGeometry x="1000" y="360" width="30" height="20" as="geometry" />
        </mxCell>
        <mxCell id="KgP6qOmpHxI04-KH-3du-35" value="&lt;font style=&quot;font-size: 11px&quot;&gt;No&lt;/font&gt;" style="text;html=1;align=center;verticalAlign=middle;resizable=0;points=[];autosize=1;fontColor=#E4FDE1;" vertex="1" parent="WIyWlLk6GJQsqaUBKTNV-1">
          <mxGeometry x="895" y="440" width="30" height="20" as="geometry" />
        </mxCell>
        <mxCell id="KgP6qOmpHxI04-KH-3du-40" value="" style="edgeStyle=orthogonalEdgeStyle;curved=0;rounded=1;sketch=0;orthogonalLoop=1;jettySize=auto;html=1;strokeColor=#028090;fillColor=#F45B69;fontColor=#E4FDE1;" edge="1" parent="WIyWlLk6GJQsqaUBKTNV-1" source="KgP6qOmpHxI04-KH-3du-37" target="KgP6qOmpHxI04-KH-3du-39">
          <mxGeometry relative="1" as="geometry" />
        </mxCell>
        <mxCell id="KgP6qOmpHxI04-KH-3du-44" value="" style="edgeStyle=orthogonalEdgeStyle;curved=0;rounded=1;sketch=0;orthogonalLoop=1;jettySize=auto;html=1;strokeColor=#028090;fillColor=#F45B69;fontColor=#E4FDE1;" edge="1" parent="WIyWlLk6GJQsqaUBKTNV-1" source="KgP6qOmpHxI04-KH-3du-37" target="KgP6qOmpHxI04-KH-3du-43">
          <mxGeometry relative="1" as="geometry" />
        </mxCell>
        <mxCell id="KgP6qOmpHxI04-KH-3du-37" value="是否离职" style="rhombus;whiteSpace=wrap;html=1;rounded=0;shadow=0;fontColor=#E4FDE1;strokeColor=#028090;fillColor=#F45B69;sketch=0;" vertex="1" parent="WIyWlLk6GJQsqaUBKTNV-1">
          <mxGeometry x="555" y="750" width="120" height="90" as="geometry" />
        </mxCell>
        <mxCell id="KgP6qOmpHxI04-KH-3du-39" value="&lt;span&gt;员工解绑&lt;/span&gt;" style="ellipse;whiteSpace=wrap;html=1;rounded=0;shadow=0;fontColor=#E4FDE1;strokeColor=#028090;fillColor=#F45B69;sketch=0;" vertex="1" parent="WIyWlLk6GJQsqaUBKTNV-1">
          <mxGeometry x="552.13" y="910" width="125.75" height="60" as="geometry" />
        </mxCell>
        <mxCell id="KgP6qOmpHxI04-KH-3du-41" value="Yes" style="text;html=1;align=center;verticalAlign=middle;resizable=0;points=[];autosize=1;fontColor=#E4FDE1;" vertex="1" parent="WIyWlLk6GJQsqaUBKTNV-1">
          <mxGeometry x="615" y="860" width="40" height="20" as="geometry" />
        </mxCell>
        <mxCell id="KgP6qOmpHxI04-KH-3du-43" value="结束" style="ellipse;whiteSpace=wrap;html=1;rounded=0;shadow=0;fontColor=#E4FDE1;strokeColor=#028090;fillColor=#F45B69;sketch=0;" vertex="1" parent="WIyWlLk6GJQsqaUBKTNV-1">
          <mxGeometry x="839" y="758.75" width="81" height="72.5" as="geometry" />
        </mxCell>
        <mxCell id="KgP6qOmpHxI04-KH-3du-45" value="No" style="text;html=1;align=center;verticalAlign=middle;resizable=0;points=[];autosize=1;fontColor=#E4FDE1;" vertex="1" parent="WIyWlLk6GJQsqaUBKTNV-1">
          <mxGeometry x="740" y="770" width="30" height="20" as="geometry" />
        </mxCell>
        <mxCell id="KgP6qOmpHxI04-KH-3du-46" value="迁移数据" style="whiteSpace=wrap;html=1;rounded=0;shadow=0;fontColor=#E4FDE1;strokeColor=#028090;fillColor=#F45B69;sketch=0;" vertex="1" parent="WIyWlLk6GJQsqaUBKTNV-1">
          <mxGeometry x="571.01" y="660" width="88" height="40" as="geometry" />
        </mxCell>
        <mxCell id="KgP6qOmpHxI04-KH-3du-48" value="Yes" style="text;html=1;align=center;verticalAlign=middle;resizable=0;points=[];autosize=1;fontColor=#E4FDE1;" vertex="1" parent="WIyWlLk6GJQsqaUBKTNV-1">
          <mxGeometry x="615" y="620" width="40" height="20" as="geometry" />
        </mxCell>
        <mxCell id="KgP6qOmpHxI04-KH-3du-50" value="No" style="text;html=1;align=center;verticalAlign=middle;resizable=0;points=[];autosize=1;fontColor=#E4FDE1;" vertex="1" parent="WIyWlLk6GJQsqaUBKTNV-1">
          <mxGeometry x="480" y="660" width="30" height="20" as="geometry" />
        </mxCell>
      </root>
    </mxGraphModel>
  </diagram>
</mxfile>
